

<svg xmlns="http://www.w3.org/2000/svg" viewBox="0 0 315 215" class="svg-logo" width="354.375" height="241.875" style="height: auto;">
    <rect rx="10" ry="10" width="100%" height="100%" fill="rgba(228, 164, 136, 1.0)"></rect>
    <g data-element="wrapper" transform="translate(23.62499351501313 18.249999999998987) scale(0.8500000000000096)">
        <g>
            <g data-element="icon" transform="scale(0.13793029422681027) translate(841.8810341361575 206.7761468123499)">
            <path id="color_x5F_2" fill="#F9B418" d="M251.854,213.126c14.05-3.889,28.973-5.914,44.327-5.914    c31.702,0,60.987,8.644,84.545,23.205c8.172-10.813,21.135-17.805,35.733-17.805c7.6,0,14.753,1.899,21.022,5.241    c-1.02-1.668-2.071-3.323-3.158-4.963c-35.258-53.207-17.309-114.748-17.309-114.748c-33.334,7.693-54.488,49.361-60.258,80.772    c-5.77,31.411-46.797,35.258-53.207,0.641c-6.411-34.617-30.129-40.386-30.129-40.386c2.311,24.271-14.362,43.908-32.627,60.588    C245.399,203.327,249.191,207.889,251.854,213.126z M402.068,130.632c-3.992,39.248,13.224,75.269,13.224,75.269    C385.223,174.751,402.068,130.632,402.068,130.632z M504.839,365.461c0,0,32.693,114.748-53.849,176.288    c-17.798,12.656-39.824,22.028-63.603,28.5c8.868-6.722,17.647-15.593,25.843-27.284c27.139-38.718,22.822-75.909,14.423-100.293    c-7.131-20.699-18.078-35.592-22.73-41.34c21.011-19.958,32.039-46.891,32.039-78.625c0-8.255-1.069-16.308-3.086-24.076    c12.029-5.084,21.371-15.277,25.31-27.859c9.504,37.833,8.218,74.446,5.266,94.689c-4.487,30.771-4.616,43.139,8.976,43.592    C492.658,409.693,504.839,378.281,504.839,365.461z M289.305,581.497c-41.268-1.032-78.103-9.172-98.185-22.595    c2.898-1.004,5.675-2.245,8.295-3.66l1.073,4.245c0.153,0.606,0.7,1.032,1.326,1.032h62.04    C267.569,567.796,276.638,575.701,289.305,581.497z M152.925,414.416c11.967-13.262,24.628-20.752,30.969-23.982    c-10.083-11.748-17.372-24.944-21.567-39.001c-6.275-2.333-10.37-6.81-10.129-11.865c0.173-3.633,2.544-6.759,6.261-8.873    c-0.171-2.165-0.27-4.344-0.302-6.532c-2.586,1.699-5.392,3.096-8.459,4.118c-36.539,12.18-20.45-62.282-20.45-62.282    s-49.767,42.888-54.606,118.694c-3.969,62.171,25.437,104.41,54.219,130.499c-0.55-2.613-1.043-5.354-1.456-8.266    C120.904,461.045,137.695,431.295,152.925,414.416z M117.737,486.912c-56.294-63.878-25.982-125.121-25.982-125.121    c-9.743,68.658,26.93,108.447,26.93,108.447L117.737,486.912z M483.608,241.098c-4.668-34.616,23.183-66.669,23.183-66.669    c-6.124,25.001,10.611,34.617,17.663,60.579c7.052,25.962-17.663,60.579-17.663,60.579C509,282.125,486.427,261.995,483.608,241.098    z M286.301,76.669c-5.437-34.616,27-66.669,27-66.669c-7.133,25.001,12.358,34.617,20.57,60.579    c8.213,25.963-20.57,60.579-20.57,60.579C315.874,117.696,289.584,97.566,286.301,76.669z M254.88,375.043v54.912    c-1.743-0.539-3.543-0.945-5.387-1.216v-57.532C250.989,372.688,252.774,374.01,254.88,375.043z M234.018,371.906    c1.906-0.111,3.583-0.439,5.088-0.904v57.717c-1.472,0.209-2.914,0.506-4.324,0.887l-1.227-0.244V371.92    C233.711,371.914,233.862,371.915,234.018,371.906z M246.042,366.784c0.226,0.377,0.465,0.752,0.718,1.124v60.542    c-0.841-0.059-1.687-0.099-2.542-0.099c-0.8,0-1.591,0.035-2.378,0.086v-58.533C243.545,369.036,244.936,367.961,246.042,366.784z     M257.613,376.153c1.548,0.503,3.241,0.853,5.083,1.019v56.264c-1.617-0.963-3.316-1.8-5.083-2.506V376.153z M221.023,440.453    c6.023-5.795,14.197-9.368,23.195-9.368c12.234,0,22.952,6.599,28.794,16.42c-1.146-0.11-2.306-0.171-3.481-0.171    c-0.554,0-1.105,0.017-1.654,0.042c-5.326-7.309-13.945-12.07-23.66-12.07c-6.249,0-12.042,1.975-16.801,5.324    c-1.376-0.159-2.772-0.25-4.19-0.25C222.487,440.38,221.753,440.409,221.023,440.453z M264.655,447.672    c-2.071,0.279-4.088,0.729-6.034,1.345c-3.786-3.509-8.847-5.659-14.403-5.659c-1.796,0-3.54,0.227-5.206,0.648    c-2.39-1.162-4.929-2.06-7.576-2.676c3.794-2.096,8.15-3.291,12.782-3.291C252.432,438.039,259.785,441.791,264.655,447.672z     M250.507,452.75c-0.03-0.016-0.063-0.028-0.093-0.045c-2.218-2.52-4.778-4.727-7.609-6.554c0.467-0.036,0.938-0.06,1.413-0.06    c4.328,0,8.31,1.499,11.462,4.001C253.878,450.842,252.15,451.732,250.507,452.75z M223.227,443.113    c9.913,0,18.828,4.333,24.965,11.2c-1.137,0.832-2.224,1.728-3.255,2.684c-5.359-5.93-13.107-9.663-21.71-9.663    c-16.136,0-29.265,13.129-29.265,29.266c0,0.459,0.014,0.914,0.035,1.368h-4.22c-0.018-0.454-0.035-0.909-0.035-1.368    C189.742,458.136,204.764,443.113,223.227,443.113z M196.731,477.968c-0.023-0.453-0.035-0.909-0.035-1.368    c0-14.63,11.902-26.532,26.531-26.532c7.85,0,14.911,3.43,19.773,8.865c-1.226,1.321-2.357,2.73-3.378,4.222    c-3.893-4.739-9.797-7.768-16.395-7.768c-11.696,0-21.212,9.516-21.212,21.213c0,0.46,0.02,0.915,0.049,1.368H196.731z     M235.482,471.209c-2.08-4.707-6.786-8.005-12.254-8.005c-7.386,0-13.395,6.009-13.395,13.396c0,0.461,0.024,0.918,0.069,1.368    h-5.097c-0.033-0.452-0.056-0.908-0.056-1.368c0-10.191,8.29-18.48,18.479-18.48c6.082,0,11.486,2.955,14.855,7.503    C237.066,467.398,236.189,469.263,235.482,471.209z M212.664,477.968c-0.058-0.449-0.098-0.904-0.098-1.368    c0-5.879,4.782-10.662,10.661-10.662c5.879,0,10.662,4.783,10.662,10.662c0,0.264-0.021,0.521-0.04,0.781    c-0.034,0.195-0.075,0.39-0.105,0.587H212.664z M299.578,468.789l-3.421,2.637c-4.619-10.1-14.811-17.138-26.624-17.138    c-14.226,0-26.108,10.206-28.723,23.68h-4.287c2.668-15.813,16.45-27.9,33.01-27.9C282.699,450.067,294.111,457.71,299.578,468.789z     M293.933,473.141l-4.39,3.384c-2.907-8.251-10.777-14.184-20.011-14.184c-9.763,0-18.001,6.633-20.46,15.627h-5.474    c2.573-11.955,13.222-20.946,25.934-20.946C280.467,457.022,289.876,463.673,293.933,473.141z M287.147,477.968h-5.455    c-2.123-4.602-6.768-7.81-12.16-7.81c-5.391,0-10.036,3.208-12.159,7.81h-5.455c2.374-7.467,9.371-12.894,17.613-12.894    C277.775,465.074,284.773,470.501,287.147,477.968z M260.468,477.968c1.88-3.04,5.234-5.076,9.064-5.076    c3.83,0,7.185,2.036,9.065,5.076H260.468z"></path> 
            <path id="color_x5F_1" d="M337.185,363.71c4.618,0,9.026-0.339,13.175-1c-0.565,1.288-0.874,2.654-0.874,4.076    c0,8.048,9.682,14.352,22.04,14.352c12.358,0,22.04-6.304,22.04-14.352c0-7.386-8.158-13.3-19.054-14.222    c6.646-5.728,10.511-13.645,10.511-23.707c0-14.64-19.477-40.32-49.889-43.845c-27.369-3.171-49.888,16.009-49.888,39.061    C285.247,347.127,309.633,363.71,337.185,363.71z M388.099,366.786c0,4.202-6.806,8.885-16.572,8.885    c-9.767,0-16.572-4.683-16.572-8.885s6.806-8.884,16.572-8.884C381.293,357.902,388.099,362.584,388.099,366.786z M300.752,320.258    c0.318-0.428,7.952-10.452,21.063-9.149c16.387,1.633,19.883,14.47,20.023,15.017c0.566,2.191-0.753,4.429-2.945,4.994    c-0.345,0.09-0.688,0.131-1.027,0.131c-1.825,0.001-3.49-1.227-3.968-3.076c-0.079-0.275-2.355-7.855-12.896-8.904    c-8.41-0.845-13.478,5.633-13.69,5.908c-1.369,1.79-3.936,2.148-5.734,0.79C299.779,324.609,299.405,322.064,300.752,320.258z     M182.316,477.968l-16.477-21.913l15.199-0.19l7.936,8.986c-1.268,3.687-1.966,7.637-1.966,11.749c0,0.459,0.018,0.913,0.035,1.368    H182.316z M285.547,480.701l-17.625,25.793h-63.28l-20.201-25.793H285.547z M317.537,458.395l12.546,3.562l-17.612,16.011h-20.323    L317.537,458.395z M213.414,355.969c-0.442-1.835,0.688-3.68,2.522-4.122c1.829-0.442,3.673,0.681,4.119,2.51    c0.128,0.503,2.976,11.34,13.568,10.728c7.621-0.442,9.11-5.268,9.386-6.684c-9.867-2.723-17.081-10.601-15.935-18.036    c0.639-4.153,4.249-13.507,23.923-10.661c8.496,1.229,15.081,4.345,18.065,8.549c1.537,2.167,2.097,4.611,1.617,7.07    c-1.586,8.134-10.508,13.987-20.476,14.045c1.122,3.777,5.154,12.562,18.152,10.865c7.912-1.033,9.897-8.838,9.978-9.17    c0.444-1.826,2.287-2.964,4.109-2.529c1.829,0.432,2.968,2.248,2.547,4.08c-0.12,0.52-3.07,12.74-15.749,14.396    c-1.438,0.188-3.204,0.194-6.544,0.163c-1.849-0.018-3.535-0.516-5.083-1.019c-0.967-0.313-1.875-0.689-2.733-1.11    c-2.105-1.033-3.891-2.355-5.387-3.836c-1.05-1.039-1.956-2.154-2.733-3.299c-0.253-0.372-0.493-0.747-0.718-1.124    c-1.105,1.177-2.496,2.252-4.201,3.12c-0.831,0.424-1.743,0.791-2.733,1.098c-1.506,0.465-3.182,0.793-5.088,0.904    c-0.157,0.009-1.018,0.038-1.288,0.038C220.535,371.944,214.775,361.617,213.414,355.969z M413.23,542.965    c27.139-38.718,22.822-75.909,14.423-100.293c-7.131-20.699-18.078-35.592-22.73-41.34c21.011-19.958,32.039-46.891,32.039-78.625    c0-8.255-1.069-16.308-3.086-24.076c12.029-5.084,21.371-15.277,25.31-27.859c1.324-4.229,2.04-8.727,2.04-13.392    c0-17.124-9.619-31.997-23.745-39.525c-6.269-3.342-13.422-5.241-21.022-5.241c-14.599,0-27.561,6.991-35.733,17.805    c-23.559-14.561-52.844-23.205-84.545-23.205c-15.354,0-30.277,2.025-44.327,5.914c-2.663-5.238-6.455-9.799-11.061-13.368    c-6.681-5.176-15.06-8.265-24.165-8.265c-21.816,0-39.502,17.686-39.502,39.502c0,8.645,2.785,16.635,7.495,23.139    c-17.192,19.652-26.483,43.448-26.483,68.572c0,0.486,0.014,0.971,0.02,1.455c0.031,2.188,0.13,4.367,0.302,6.532    c-3.718,2.114-6.088,5.24-6.261,8.873c-0.24,5.056,3.854,9.532,10.129,11.865c4.195,14.057,11.484,27.253,21.567,39.001    c-6.341,3.23-19.001,10.721-30.969,23.982c-15.23,16.879-32.021,46.629-25.52,92.51c0.413,2.911,0.905,5.652,1.456,8.266    c6.331,30.053,21.277,40.948,33.207,44.7c4.136,1.301,8.371,1.889,12.579,1.889c5.649-0.001,11.243-1.065,16.474-2.878    c2.898-1.004,5.675-2.245,8.295-3.66l-1.693-6.699c-3.503,4.488-8.965,7.747-17.044,8.9c-31.199,4.454-39.962-25.559-39.962-25.559    s8.42-8.288,22.413-13.479c6.801-2.523,17.561-4.307,25.614-5.379l-8.366-33.091l-18.341-24.394    c-0.309-0.412-0.361-0.963-0.134-1.424c0.227-0.463,0.695-0.758,1.209-0.765l18.52-0.232c0.447-0.021,0.779,0.165,1.042,0.462    l7.424,8.406c4.79-10.819,14.723-18.865,26.685-21.024c3.777-4.384,8.583-7.854,14.041-10.036v-13.555    c-29.438-13.734-51.47-36.62-60.86-64.322c0.268,0.02,0.538,0.038,0.81,0.051c0.494,0.024,0.982,0.035,1.466,0.035    c10.064,0,17.987-4.994,18.309-11.749v-0.001c0.091-1.921-0.448-3.758-1.49-5.426c4.898,0.544,10.283,0.433,15.98-0.327    c22.06-2.942,39.923-18.013,37.612-35.341c-2.311-17.329-22.265-29.341-43.861-24.034c-14.36,3.529-24.785,12.604-30.53,21.682    c13.195-48.617,64.667-83.896,127.923-83.896c73.859,0,133.947,48.745,133.947,108.661c0,66.009-52.577,108.66-133.947,108.66    c-10.625,0-20.916-1-30.751-2.888v6.76c4.584,3.325,8.358,7.694,10.976,12.758c11.08,2.138,20.372,9.34,25.372,19.095l14.636-11.282    c0.342-0.265,0.79-0.35,1.207-0.232l15.574,4.421c0.478,0.136,0.845,0.52,0.958,1.003c0.113,0.483-0.044,0.989-0.411,1.323    l-19.56,17.781l-4.52,13.471c-0.962,0.025-1.937,0.066-2.929,0.133l4.365-13.008h-21.861l-3.867,17.807    c-1.086,0.472-2.124,0.971-3.12,1.491l0.792-3.647l2.272-10.465l-15.543,22.745c-0.255,0.373-0.678,0.597-1.129,0.597h-64.666    c-0.42,0-0.817-0.194-1.076-0.524l-18.358-23.44l18.335,72.521H262.6c0.329,0.797,0.679,1.582,1.054,2.353    c0.061,0.127,0.135,0.255,0.2,0.382c3.716,7.276,12.784,15.182,25.451,20.978c9.096,4.162,20.039,7.237,32.188,8.203    c2.315,0.184,4.859,0.3,7.601,0.3c15.474,0,37.139-3.717,58.294-19.751C396.256,563.527,405.035,554.656,413.23,542.965z     M421.928,471.524c0,0-7.389-35.69-26.881-54.736l6.379-3.872C401.426,412.916,422.611,439.241,421.928,471.524z M403.865,248.402    c2.811-3.933,7.402-6.51,12.595-6.51c8.539,0,15.486,6.948,15.486,15.487c0,6.419-3.928,11.938-9.505,14.282    C417.389,263.286,411.136,255.482,403.865,248.402z M216.628,214.315c5.466,0,10.302,2.641,13.345,6.703    c-10.236,4.62-19.775,10.351-28.403,17.117c-1.029-2.167-1.622-4.58-1.622-7.139C199.947,221.784,207.415,214.315,216.628,214.315z     M171.032,347.642c-8.082-0.384-13.535-4.428-13.373-7.816c0.153-3.217,5.398-6.542,12.844-6.542c0.397,0,0.801,0.01,1.21,0.028    c8.082,0.385,13.535,4.429,13.374,7.817C184.924,344.518,179.11,348.024,171.032,347.642z M165.135,328.31    c-0.108-1.855-0.165-3.722-0.165-5.603c0-0.57,0.015-1.137,0.025-1.705c1.123,2.615,2.69,4.893,4.647,6.827    C168.076,327.872,166.565,328.035,165.135,328.31z M193.351,304.557c0.279-0.378,6.996-9.205,18.542-8.059    c14.418,1.437,17.512,12.798,17.636,13.282c0.566,2.192-0.752,4.429-2.946,4.994c-0.343,0.089-0.688,0.131-1.027,0.131    c-1.825,0.001-3.491-1.227-3.967-3.076c-0.174-0.595-2.074-6.33-10.509-7.17c-6.878-0.684-11.113,4.742-11.153,4.797    c-1.354,1.816-3.922,2.192-5.737,0.839C192.373,308.941,191.997,306.372,193.351,304.557z M320.955,499.649    c0.008,0.001,31.949,3.788,38.782,13.198c0,0-17.767-6.021-32.284-8.197c1.818,6.396,4.948,20.303,3.85,37.391    c-1.303,20.271-8.696,42.864-8.696,42.864c-19.685-1.753-41.979-9.174-52.344-24.386h-0.042c-0.581-0.838-1.086-1.671-1.505-2.496    c-4.587-8.131-5.917-18.287-2.091-30.752C276.506,495.078,308.279,497.348,320.955,499.649z"></path>
        </g>
        <text transform="translate(82.0250015258789 163.29999923706055)" fill="rgba(79, 20, 48, 1.0)" font-family="IM Fell French Canon" font-size="64" data-element="company-name" dx="0 0 0 0 0">
            Ebisu 
        </text> 
    </g> 
</g> 
</svg>